# AST/ASF file generated using VICON BodyLanguage
# -----------------------------------------------
:version 1.10
:name VICON
:units
  mass 1.0
  length 0.45
  angle deg
:documentation
   .ast/.asf automatically generated from VICON data using
   VICON BodyBuilder and BodyLanguage model FoxedUp or BRILLIANT.MOD
:root
   order TX TY TZ RX RY RZ
   axis XYZ
   position 0 0 0  
   orientation 0 0 0 
:bonedata
  begin
     id 1 
     name lhipjoint
     direction 0.623415 -0.642378 0.445763 
     length 2.49859 
     axis 0 0 0  XYZ
  end
  begin
     id 2 
     name lfemur
     direction 0.34202 -0.939693 0  
     length 6.69689  
     axis 0 0 20  XYZ
    dof rx ry rz
    limits (-160.0 20.0)
           (-70.0 70.0)
           (-60.0 70.0)
  end
  begin
     id 3 
     name ltibia
     direction 0.34202 -0.939693 0   
     length 7.37574   
     axis 0 0 20   XYZ
    dof rx
    limits (-10.0 170.0)
  end
  begin
     id 4 
     name lfoot
     direction 0.084323 -0.231675 0.969132   
     length 2.09111   
     axis -90 7.62852e-016 20   XYZ
    dof rx rz
    limits (-45.0 90.0)
           (-70.0 20.0)
  end
  begin
     id 5 
     name ltoes
     direction 1.5357e-011 -4.21957e-011 1   
     length 1.04989   
     axis -90 7.62852e-016 20   XYZ
    dof rx
    limits (-90.0 20.0)
  end
  begin
     id 6 
     name rhipjoint
     direction -0.605402 -0.653903 0.45376   
     length 2.45455  
     axis 0 0 0  XYZ 
  end
  begin
     id 7 
     name rfemur
     direction -0.34202 -0.939693 0   
     length 6.64523   
     axis 0 0 -20   XYZ
    dof rx ry rz
    limits (-160.0 20.0)
           (-70.0 70.0)
           (-70.0 60.0)
  end
  begin
     id 8 
     name rtibia
     direction -0.34202 -0.939693 0   
     length 7.3339   
     axis 0 0 -20   XYZ
    dof rx
    limits (-10.0 170.0)
 end
 begin
     id 9 
     name rfoot
     direction -0.120854 -0.332043 0.93549   
     length 2.23135  
     axis -90 -7.62852e-016 -20   XYZ
    dof rx rz
    limits (-45.0 90.0)
           (-20.0 70.0)
  end
  begin
     id 10 
     name rtoes
     direction -1.53563e-011 -4.21914e-011 1   
     length 1.10614   
     axis -90 -7.62852e-016 -20   XYZ
    dof rx
    limits (-90.0 20.0)
  end
  begin
     id 11 
     name lowerback
     direction 0.0319682 0.998615 -0.0417941   
     length 2.02718   
     axis 0 0 0   XYZ
    dof rx ry rz
    limits (-20.0 45.0)
           (-30.0 30.0)
           (-30.0 30.0)
  end
  begin
     id 12 
     name upperback
     direction 7.63181e-005 0.995808 0.0914691   
     length 1.97539   
     axis 0 0 0   XYZ
    dof rx ry rz
    limits (-20.0 45.0)
           (-30.0 30.0)
           (-30.0 30.0)
  end
  begin
     id 13 
     name thorax
     direction -0.016423 0.993627 0.111514   
     length 2.00349   
     axis 0 0 0   XYZ
    dof rx ry rz
    limits (-20.0 45.0)
           (-30.0 30.0)
           (-30.0 30.0)
  end
  begin
     id 14 
     name lowerneck
     direction -0.174763 0.981668 -0.0760716   
     length 1.71436   
     axis 0 0 0   XYZ
    dof rx ry rz
    limits (-20.0 45.0)
           (-30.0 30.0)
           (-30.0 30.0)
  end
  begin
     id 15 
     name upperneck
     direction 0.345458 0.934587 -0.0848868   
     length 1.72805   
     axis 0 0 0   XYZ
    dof rx ry rz
    limits (-20.0 45.0)
           (-30.0 30.0)
           (-30.0 30.0)
  end
  begin
     id 16
     name head
     direction 0.13001 0.989848 -0.0574291  
     length 1.767  
     axis 0 0 0   XYZ
    dof rx ry rz
    limits (-20.0 45.0)
           (-30.0 30.0)
           (-30.0 30.0)
  end
  begin
     id 17 
     name lclavicle
     direction 0.952951 0.290122 0.0878234  
     length 3.54654  
     axis 0 0 0   XYZ
    dof ry rz
    limits (-20.0 10.0)
           (0.0 20.0)
  end
  begin
     id 18 
     name lhumerus
     direction 1 -4.48957e-011 -4.56525e-028   
     length 5.19807   
     axis 180 -30 -90   XYZ
    dof rx ry rz
    limits (-60.0 90.0)
           (-90.0 90.0)
           (-90.0 90.0)
  end
  begin
     id 19
     name lradius
     direction 1 -4.48979e-011 -2.0317e-027   
     length 3.0937   
     axis 180 -30 -90   XYZ
    dof rx
    limits (-10.0 170.0)
  end
  begin
     id 20
     name lwrist
     direction 1 -4.48953e-011 -3.05809e-027   
     length 1.54685   
     axis 8.48514e-016 90 90   XYZ
    dof ry
    limits (-180.0 0.0)
 end
  begin
     id 21 
     name lhand
     direction 1 -4.48952e-011 -6.11639e-027   
     length 0.672632   
     axis 3.9013e-015 90 90   XYZ
    dof rx rz
    limits (-90.0 90.0)
           (-45.0 45.0)
  end
  begin
     id 22 
     name lfingers
     direction 1 -4.48925e-011 -1.22426e-026   
     length 0.542293   
     axis 7.80276e-015 90 90   XYZ
    dof rx
    limits (0.0 90.0)
  end
  begin
     id 23
     name lthumb
     direction 0.707107 -6.3486e-011 0.707107   
     length 0.778628   
     axis -90 45 5.37419e-014   XYZ
    dof rx rz
    limits (-45.0 45.0)
           (-45.0 45.0)
  end
  begin
     id 24 
     name rclavicle
     direction -0.960732 0.273675 -0.0457849   
     length 3.52079  
     axis 0 0 0   XYZ 
    dof ry rz
    limits (-10.0 20.0)
           (-20.0 0.0)
  end
  begin
     id 25 
     name rhumerus
     direction -1 -4.48976e-011 -1.63613e-027  
     length 5.45222   
     axis 180 30 90   XYZ
    dof rx ry rz
    limits (-90.0 60.0)
           (-90.0 90.0)
           (-90.0 90.0)
  end
  begin
     id 26 
     name rradius
     direction -1 -4.48957e-011 -7.00033e-028   
     length 3.01284   
     axis 180 30 90   XYZ
    dof rx
    limits (-10.0 170.0)
  end
  begin
     id 27 
     name rwrist
     direction -1 -4.48983e-011 -3.05543e-027   
     length 1.50642   
     axis 8.48514e-016 -90 -90   XYZ
    dof ry
    limits (-180.0 0.0)
  end
  begin
     id 28
     name rhand
     direction -1 -4.48984e-011 -6.11072e-027   
     length 0.622296   
     axis 3.9013e-015 -90 -90   XYZ
    dof rx rz
    limits (-90.0 90.0)
           (-45.0 45.0)
  end
  begin
     id 29
     name rfingers
     direction -1 -4.48865e-011 -1.22637e-026   
     length 0.501711   
     axis 7.80276e-015 -90 -90   XYZ
    dof rx
    limits (0.0 90.0)
  end
  begin
     id 30
     name rthumb
     direction -0.707107 -6.34932e-011 0.707107   
     length 0.72036   
     axis -90 -45 -5.37419e-014   XYZ
    dof rx rz
    limits (-45.0 45.0)
           (-45.0 45.0)
  end
:hierarchy
  begin
    root lhipjoint rhipjoint lowerback
    lhipjoint lfemur
    lfemur ltibia
    ltibia lfoot
    lfoot ltoes
    rhipjoint rfemur
    rfemur rtibia
    rtibia rfoot
    rfoot rtoes
    lowerback upperback
    upperback thorax
    thorax lowerneck lclavicle rclavicle
    lowerneck upperneck
    upperneck head
    lclavicle lhumerus
    lhumerus lradius
    lradius lwrist
    lwrist lhand lthumb
    lhand lfingers
    rclavicle rhumerus
    rhumerus rradius
    rradius rwrist
    rwrist rhand rthumb
    rhand rfingers
  end

#!OML:ASF H:\Not Pregnant\Project 1\Capture day 1\Session 1\non-pregnant.ASF
:FULLY-SPECIFIED
:DEGREES
406
root -5.73459 16.1693 13.4193 164.086 -83.7321 -150.002
lowerback -4.21727 0.527927 -0.484459
upperback -8.98665 0.338747 0.122908
thorax -7.01148 0.0469708 0.412049
lowerneck 16.2945 -8.56671 -30.3025
upperneck -5.3236 -18.4921 41.6788
head 3.4415 -11.6835 20.8551
rclavicle -4.57205e-015 9.93923e-015
rhumerus -46.2127 -22.2964 -66.4373
rradius 32.1447
rwrist 19.9451
rhand -5.19092 1.29074
rfingers 7.12502
rthumb 20.61 -27.6351
lclavicle -4.57205e-015 9.93923e-015
lhumerus -42.651 -13.4467 88.7782
lradius 32.6567
lwrist 35.1305
lhand -15.0367 -11.8351
lfingers 7.12502
lthumb 11.1294 17.8498
rfemur -17.3551 11.2413 -7.69407
rtibia 18.0622
rfoot 4.85396 5.48765
rtoes -36.023
lfemur -22.1561 4.08968 -9.43333
ltibia 29.0383
lfoot -21.8262 -9.91357
ltoes -28.1853
407
root -5.73541 16.1573 13.2876 165.761 -84.0954 -151.823
lowerback -4.12949 0.483214 -0.861164
upperback -8.96716 0.273187 -0.019258
thorax -7.04287 0.0358202 0.474671
lowerneck 16.3207 -8.54171 -30.3386
upperneck -5.28543 -18.4737 41.668
head 3.44124 -11.6747 20.8668
rclavicle 1.54058e-015 1.03368e-014
rhumerus -46.1578 -22.219 -66.6943
rradius 31.9363
rwrist 20.5441
rhand -4.85615 1.54179
rfingers 7.12502
rthumb 20.9316 -27.3489
lclavicle 1.54058e-015 1.03368e-014
lhumerus -42.5428 -13.2427 88.2729
lradius 32.7219
lwrist 35.0822
lhand -15.7069 -11.7316
lfingers 7.12502
lthumb 10.4829 17.987
rfemur -17.6597 11.0543 -7.51236
rtibia 19.4958
rfoot 3.53768 5.13819
rtoes -37.8322
lfemur -21.8574 3.80257 -9.25263
ltibia 28.7278
lfoot -21.6336 -9.7473
ltoes -29.0341
408
root -5.73604 16.1452 13.156 167.753 -84.4358 -153.969
lowerback -4.04502 0.441666 -1.21417
upperback -8.94358 0.21083 -0.16436
thorax -7.06766 0.0244252 0.521031
lowerneck 16.3353 -8.51253 -30.3797
upperneck -5.22825 -18.4483 41.6407
head 3.44295 -11.6593 20.8702
rclavicle 3.08116e-015 -1.19271e-015
rhumerus -46.0566 -22.0916 -66.9938
rradius 31.7226
rwrist 21.133
rhand -4.52635 1.78216
rfingers 7.12502
rthumb 21.2484 -27.0731
lclavicle 3.08116e-015 -1.19271e-015
lhumerus -42.4446 -13.0011 87.754
lradius 32.8034
lwrist 35.0483
lhand -16.3642 -11.6446
lfingers 7.12502
lthumb 9.8488 18.105
rfemur -17.9683 10.6861 -7.29665
rtibia 20.9844
rfoot 2.18189 4.86851
rtoes -39.3301
lfemur -21.5391 3.47525 -9.07052
ltibia 28.3985
lfoot -21.3932 -9.56033
ltoes -29.7707
409
root -5.73688 16.1335 13.0237 169.949 -84.7491 -156.325
lowerback -3.96339 0.399851 -1.5445
upperback -8.91683 0.147558 -0.305198
thorax -7.08714 0.0110553 0.55931
lowerneck 16.3402 -8.47797 -30.429
upperneck -5.15057 -18.4175 41.6015
head 3.44843 -11.6387 20.869
rclavicle -1.89342e-014 2.0276e-014
rhumerus -45.9093 -21.9081 -67.3382
rradius 31.4972
rwrist 21.7043
rhand -4.18655 2.01907
rfingers 7.12502
rthumb 21.5748 -26.7991
lclavicle -1.89342e-014 2.0276e-014
lhumerus -42.3559 -12.7045 87.2043
lradius 32.8902
lwrist 35.0427
lhand -16.9292 -11.6076
lfingers 7.12502
lthumb 9.30368 18.1671
rfemur -18.2584 10.1667 -7.03936
rtibia 22.4145
rfoot 0.840071 4.77201
rtoes -40.4098
lfemur -21.1963 3.12322 -8.86993
ltibia 28.0498
lfoot -21.116 -9.3592
ltoes -30.4368
410
root -5.73797 16.1227 12.8903 172.181 -85.0264 -158.73
lowerback -3.88198 0.359152 -1.84225
upperback -8.8852 0.086031 -0.434895
thorax -7.10087 -0.00328545 0.591078
lowerneck 16.3266 -8.43968 -30.478
upperneck -5.04758 -18.3785 41.542
head 3.45701 -11.6099 20.8553
rclavicle -1.66482e-014 1.03368e-014
rhumerus -45.7326 -21.6877 -67.7058
rradius 31.2874
rwrist 22.2783
rhand -3.82226 2.26104
rfingers 7.12502
rthumb 21.9246 -26.5166
lclavicle -1.66482e-014 1.03368e-014
lhumerus -42.2679 -12.3325 86.6138
lradius 32.9712
lwrist 35.0775
lhand -17.2909 -11.6281
lfingers 7.12502
lthumb 8.95465 18.1618
rfemur -18.4979 9.54888 -6.7344
rtibia 23.694
rfoot -0.490246 4.80528
rtoes -40.9537
lfemur -20.8183 2.76846 -8.63695
ltibia 27.6695
lfoot -20.8086 -9.13175
ltoes -31.1307
411
root -5.73942 16.1131 12.7553 174.47 -85.2618 -161.205
lowerback -3.79713 0.327392 -2.11799
upperback -8.84967 0.0363611 -0.560233
thorax -7.11238 -0.0130889 0.61489
lowerneck 16.3095 -8.40067 -30.5212
upperneck -4.92856 -18.3392 41.4719
head 3.46773 -11.5795 20.8338
rclavicle -9.98893e-015 1.03368e-014
rhumerus -45.532 -21.4314 -68.1066
rradius 31.0859
rwrist 22.8138
rhand -3.4222 2.49924
rfingers 7.12502
rthumb 22.3087 -26.2329
lclavicle -9.98893e-015 1.03368e-014
lhumerus -42.1818 -11.9016 85.981
lradius 33.0469
lwrist 35.1516
lhand -17.4493 -11.6956
lfingers 7.12502
lthumb 8.80175 18.1009
rfemur -18.6461 8.8804 -6.3875
rtibia 24.7679
rfoot -1.83157 4.94966
rtoes -41.0431
lfemur -20.3848 2.4204 -8.37368
ltibia 27.2321
lfoot -20.4698 -8.86889
ltoes -31.9465
412
root -5.74159 16.1061 12.6189 176.559 -85.4652 -163.491
lowerback -3.71573 0.29994 -2.36149
upperback -8.80954 -0.00669644 -0.67183
thorax -7.11677 -0.021302 0.634973
lowerneck 16.2828 -8.36332 -30.5608
upperneck -4.79267 -18.3004 41.3853
head 3.48172 -11.5466 20.8002
rclavicle -3.52843e-015 -1.23246e-014
rhumerus -45.3172 -21.1709 -68.5124
rradius 30.9062
rwrist 23.34
rhand -3.05183 2.72546
rfingers 7.12502
rthumb 22.6642 -25.9637
lclavicle -3.52843e-015 -1.23246e-014
lhumerus -42.0955 -11.4038 85.3179
lradius 33.1157
lwrist 35.2446
lhand -17.4535 -11.7852
lfingers 7.12502
lthumb 8.79777 18.0115
rfemur -18.679 8.2128 -5.99007
rtibia 25.6088
rfoot -3.14724 5.15295
rtoes -40.6962
lfemur -19.8972 2.07668 -8.06459
ltibia 26.7278
lfoot -20.0891 -8.59218
ltoes -32.8759
413
root -5.74479 16.1023 12.4813 178.733 -85.6409 -165.873
lowerback -3.63952 0.279699 -2.59323
upperback -8.76518 -0.0400954 -0.783316
thorax -7.11374 -0.0256536 0.648402
lowerneck 16.2502 -8.32794 -30.5942
upperneck -4.64012 -18.2655 41.2911
head 3.50087 -11.5146 20.7592
rclavicle -1.77912e-014 2.38542e-015
rhumerus -45.0859 -20.9074 -68.9234
rradius 30.733
rwrist 23.8421
rhand -2.68344 2.95096
rfingers 7.12502
rthumb 23.0177 -25.6946
lclavicle -1.77912e-014 2.38542e-015
lhumerus -42.0313 -10.9171 84.6649
lradius 33.2134
lwrist 35.4065
lhand -17.4097 -11.8456
lfingers 7.12502
lthumb 8.83998 17.9492
rfemur -18.5951 7.5785 -5.58268
rtibia 26.2251
rfoot -4.41353 5.36923
rtoes -40.1319
lfemur -19.3527 1.70749 -7.73883
ltibia 26.1585
lfoot -19.6552 -8.29933
ltoes -33.8358
414
root -5.74866 16.1006 12.3437 180.398 -85.8001 -167.746
lowerback -3.57418 0.263718 -2.75857
upperback -8.71962 -0.0663754 -0.881963
thorax -7.10269 -0.0305727 0.638065
lowerneck 16.211 -8.2964 -30.621
upperneck -4.47495 -18.2343 41.1831
head 3.52311 -11.4823 20.7067
rclavicle 2.03754e-015 -1.66979e-014
rhumerus -44.8387 -20.6368 -69.3321
rradius 30.5748
rwrist 24.3103
rhand -2.34263 3.16697
rfingers 7.12502
rthumb 23.3447 -25.4374
lclavicle 2.03754e-015 -1.66979e-014
lhumerus -41.9605 -10.346 83.9714
lradius 33.2967
lwrist 35.6159
lhand -17.2348 -11.9564
lfingers 7.12502
lthumb 9.00881 17.8312
rfemur -18.4056 6.9851 -5.12641
rtibia 26.6376
rfoot -5.60971 5.56711
rtoes -39.5289
lfemur -18.7841 1.30582 -7.35308
ltibia 25.552
lfoot -19.1819 -7.97688
ltoes -34.88
415
root -5.75292 16.0998 12.2055 181.677 -85.9471 -169.222
lowerback -3.5314 0.248754 -2.87806
upperback -8.67724 -0.0900349 -0.968079
thorax -7.08175 -0.0371044 0.615231
lowerneck 16.166 -8.26577 -30.6505
upperneck -4.299 -18.2056 41.0691
head 3.54982 -11.4503 20.6501
rclavicle -8.94531e-016 1.19271e-014
rhumerus -44.5689 -20.3311 -69.7556
rradius 30.4246
rwrist 24.7136
rhand -2.0744 3.36209
rfingers 7.12502
rthumb 23.602 -25.2094
lclavicle -8.94531e-016 1.19271e-014
lhumerus -41.9014 -9.73317 83.2645
lradius 33.3867
lwrist 35.8898
lhand -17.0157 -12.1002
lfingers 7.12502
lthumb 9.22018 17.6783
rfemur -18.1433 6.42395 -4.63873
rtibia 26.8833
rfoot -6.74083 5.74249
rtoes -38.9121
lfemur -18.227 0.871384 -6.92084
ltibia 24.9455
lfoot -18.6861 -7.61659
ltoes -35.9954
416
root -5.75765 16.0989 12.0671 181.853 -86.0899 -169.576
lowerback -3.5189 0.232485 -2.90372
upperback -8.63704 -0.111971 -1.02475
thorax -7.04479 -0.0481133 0.570857
lowerneck 16.1147 -8.23258 -30.6953
upperneck -4.1152 -18.1762 40.9523
head 3.58102 -11.417 20.5954
rclavicle -6.26172e-015 2.38542e-015
rhumerus -44.2888 -19.9894 -70.1855
rradius 30.3107
rwrist 25.0516
rhand -1.83206 3.54236
rfingers 7.12502
rthumb 23.8345 -24.999
lclavicle -6.26172e-015 2.38542e-015
lhumerus -41.843 -9.02719 82.5318
lradius 33.4666
lwrist 36.1822
lhand -16.7375 -12.2733
lfingers 7.12502
lthumb 9.48865 17.4931
rfemur -17.8276 5.89154 -4.07241
rtibia 26.9939
rfoot -7.81421 5.91025
rtoes -38.2828
lfemur -17.7138 0.408277 -6.39122
ltibia 24.3902
lfoot -18.1883 -7.23592
ltoes -37.1274
